<svg width="318" height="121" viewBox="0 0 318 121" fill="none" xmlns="http://www.w3.org/2000/svg">
<path d="M6.86135 22.8053C3.17603 31.6912 0.867797 42.3905 0.200872 53.6785C-0.466053 64.9665 0.535275 76.3871 3.09024 86.633C5.64521 96.879 9.65057 105.536 14.6479 111.614C19.6452 117.692 25.4325 120.944 31.3473 120.999C37.2622 121.054 43.0657 117.91 48.0934 111.925C53.1211 105.941 57.17 97.3586 59.7765 87.1607C62.3831 76.9628 63.442 65.5613 62.8321 54.2614C62.2222 42.9616 59.968 32.2198 56.3277 23.2657L31.5 60.5L6.86135 22.8053Z" fill="#FF8D8D"/>
<path d="M101.218 94H85.0676C84.6342 94 84.4176 93.8 84.4176 93.4V90.85C84.4176 90.45 84.6342 90.25 85.0676 90.25H88.8676V61.85H85.0676C84.6342 61.85 84.4176 61.65 84.4176 61.25V58.7C84.4176 58.3 84.6342 58.1 85.0676 58.1H101.168C104.501 58.1 107.084 58.9833 108.918 60.75C110.784 62.5167 111.718 64.8333 111.718 67.7C111.718 71.0667 110.234 73.5833 107.268 75.25C111.534 76.4833 113.668 79.3167 113.668 83.75C113.668 86.8833 112.618 89.3833 110.518 91.25C108.451 93.0833 105.351 94 101.218 94ZM93.2176 90.25H100.868C103.501 90.25 105.551 89.7 107.018 88.6C108.518 87.4667 109.268 85.7333 109.268 83.4C109.268 79.2333 106.568 77.15 101.168 77.15H93.2176V90.25ZM93.2176 73.85H100.868C102.601 73.8167 104.101 73.3167 105.368 72.35C106.668 71.3833 107.318 69.8667 107.318 67.8C107.318 65.7333 106.634 64.2333 105.268 63.3C103.934 62.3333 102.284 61.85 100.318 61.85H93.2176V73.85ZM152.421 75.9C152.421 81.3667 150.771 85.8167 147.471 89.25C144.204 92.65 140.071 94.35 135.071 94.35C130.104 94.35 125.954 92.6333 122.621 89.2C119.287 85.7333 117.621 81.2833 117.621 75.85C117.621 70.3833 119.337 66.0167 122.771 62.75C126.204 59.45 130.304 57.8 135.071 57.8C139.837 57.8 143.921 59.45 147.321 62.75C150.721 66.0167 152.421 70.4 152.421 75.9ZM126.121 86.5C128.687 89.0333 131.671 90.3 135.071 90.3C138.471 90.3 141.437 89.0333 143.971 86.5C146.504 83.9333 147.771 80.4333 147.771 76C147.771 71.5333 146.471 68.05 143.871 65.55C141.304 63.0167 138.371 61.75 135.071 61.75C131.771 61.75 128.821 63.0167 126.221 65.55C123.621 68.05 122.321 71.5333 122.321 76C122.321 80.4333 123.587 83.9333 126.121 86.5ZM189.337 94H177.287C176.887 94 176.687 93.8 176.687 93.4V90.85C176.687 90.45 176.887 90.25 177.287 90.25H180.587L172.287 78.6L163.737 90.25H167.087C167.52 90.25 167.737 90.45 167.737 90.85V93.4C167.737 93.8 167.52 94 167.087 94H155.087C154.654 94 154.437 93.8 154.437 93.4V90.85C154.437 90.45 154.654 90.25 155.087 90.25H158.937L169.737 75.9L158.887 61.85H155.087C154.654 61.85 154.437 61.65 154.437 61.25V58.7C154.437 58.3 154.654 58.1 155.087 58.1H167.087C167.52 58.1 167.737 58.3 167.737 58.7V61.25C167.737 61.65 167.52 61.85 167.087 61.85H163.687L172.187 73.15L180.687 61.85H177.637C177.237 61.85 177.037 61.65 177.037 61.25V58.7C177.037 58.3 177.237 58.1 177.637 58.1H189.687C190.087 58.1 190.287 58.3 190.287 58.7V61.25C190.287 61.65 190.087 61.85 189.687 61.85H185.537L174.737 75.9L185.337 90.25H189.337C189.737 90.25 189.937 90.45 189.937 90.85V93.4C189.937 93.8 189.737 94 189.337 94ZM222.086 94H194.736C194.302 94 194.086 93.8 194.086 93.4V90.85C194.086 90.45 194.302 90.25 194.736 90.25H198.536V61.85H194.736C194.302 61.85 194.086 61.65 194.086 61.25V58.7C194.086 58.3 194.302 58.1 194.736 58.1H206.686C207.119 58.1 207.336 58.3167 207.336 58.75V61.2C207.336 61.6333 207.119 61.85 206.686 61.85H202.886V90.25H218.786V85.35C218.786 84.95 219.002 84.75 219.436 84.75H222.136C222.536 84.75 222.736 84.95 222.736 85.35V93.35C222.736 93.7833 222.519 94 222.086 94ZM262.019 94H250.719C250.319 94 250.119 93.8 250.119 93.4V90.85C250.119 90.45 250.319 90.25 250.719 90.25H254.219L250.969 81.6H237.019L233.769 90.25H237.269C237.669 90.25 237.869 90.45 237.869 90.85V93.4C237.869 93.8 237.669 94 237.269 94H226.019C225.619 94 225.419 93.8 225.419 93.4V90.85C225.419 90.45 225.619 90.25 226.019 90.25H229.369L240.119 61.85H237.419C236.986 61.85 236.769 61.65 236.769 61.25V58.7C236.769 58.3 236.986 58.1 237.419 58.1H244.219C245.019 58.1 245.619 58.2667 246.019 58.6C246.452 58.9333 246.819 59.4833 247.119 60.25L258.619 90.25H262.019C262.419 90.25 262.619 90.45 262.619 90.85V93.4C262.619 93.8 262.419 94 262.019 94ZM249.619 78.15L244.069 63.3H243.919L238.319 78.15H249.619ZM281.149 94H264.999C264.566 94 264.349 93.8 264.349 93.4V90.85C264.349 90.45 264.566 90.25 264.999 90.25H268.799V61.85H264.999C264.566 61.85 264.349 61.65 264.349 61.25V58.7C264.349 58.3 264.566 58.1 264.999 58.1H281.099C284.433 58.1 287.016 58.9833 288.849 60.75C290.716 62.5167 291.649 64.8333 291.649 67.7C291.649 71.0667 290.166 73.5833 287.199 75.25C291.466 76.4833 293.599 79.3167 293.599 83.75C293.599 86.8833 292.549 89.3833 290.449 91.25C288.383 93.0833 285.283 94 281.149 94ZM273.149 90.25H280.799C283.433 90.25 285.483 89.7 286.949 88.6C288.449 87.4667 289.199 85.7333 289.199 83.4C289.199 79.2333 286.499 77.15 281.099 77.15H273.149V90.25ZM273.149 73.85H280.799C282.533 73.8167 284.033 73.3167 285.299 72.35C286.599 71.3833 287.249 69.8667 287.249 67.8C287.249 65.7333 286.566 64.2333 285.199 63.3C283.866 62.3333 282.216 61.85 280.249 61.85H273.149V73.85Z" fill="#EBDEDE"/>
</svg>
