<svg width="81" height="81" viewBox="0 0 81 81" fill="none" xmlns="http://www.w3.org/2000/svg">
<path d="M20.2508 0V54.3364C18.4383 53.7531 16.5446 53.4611 14.6405 53.4713C6.56127 53.4713 0 59.1883 0 67.2673C0 75.3462 6.56127 81 14.6405 81C22.7198 81 29.3216 75.0514 29.3216 66.42V28.687H71.9293V54.3364C70.1167 53.753 68.2231 53.461 66.319 53.4713C58.2397 53.4713 51.6785 59.1883 51.6785 67.2673C51.6785 75.3462 58.2397 81 66.319 81C74.3982 81 81 75.0514 81 66.42V0H20.2508ZM71.9309 20.25H29.3232V9.072H71.9309V20.25Z" fill="#C98282"/>
</svg>
