<svg style="display: none;" fill="none" xmlns="http://www.w3.org/2000/svg">
        <symbol id="search__icon" viewBox="0 0 35 35" fill="none">
            <g>
                <path
                    d="M21.1914 12.9883C20.8141 12.9883 20.5078 13.2945 20.5078 13.6719C20.5078 14.0492 20.8141 14.3555 21.1914 14.3555C21.5688 14.3555 21.875 14.0492 21.875 13.6719C21.875 13.2945 21.5688 12.9883 21.1914 12.9883Z"
                    fill="currentColor" />
                <path
                    d="M34.1989 30.3324L25.0743 21.2077C26.5608 18.9687 27.3438 16.3758 27.3438 13.6719C27.3438 6.1332 21.2105 0 13.6719 0C6.1332 0 0 6.1332 0 13.6719C0 21.2105 6.1332 27.3438 13.6719 27.3438C16.3759 27.3438 18.9688 26.5607 21.2077 25.0744L23.7299 27.5965C23.7302 27.5968 23.7305 27.5972 23.731 27.5976L30.3323 34.1989C30.8489 34.7155 31.5355 35 32.2656 35C32.9958 35 33.6823 34.7155 34.1987 34.1991C34.7154 33.6828 35 32.9962 35 32.2656C35 31.5351 34.7154 30.8485 34.1989 30.3324ZM20.8863 23.6337C20.8863 23.6337 20.8862 23.6338 20.8861 23.6338C18.7761 25.1664 16.2815 25.9766 13.6719 25.9766C6.88707 25.9766 1.36719 20.4567 1.36719 13.6719C1.36719 6.88707 6.88707 1.36719 13.6719 1.36719C20.4567 1.36719 25.9766 6.88707 25.9766 13.6719C25.9766 16.2815 25.1664 18.7761 23.6337 20.8862C22.867 21.9425 21.9426 22.867 20.8863 23.6337ZM22.3204 24.2534C23.0279 23.6746 23.6747 23.0279 24.2534 22.3204L26.1929 24.2599C25.603 24.956 24.956 25.6031 24.2599 26.1929L22.3204 24.2534ZM33.2322 33.2322C32.9738 33.4906 32.6305 33.6328 32.2656 33.6328C31.9007 33.6328 31.5575 33.4906 31.2991 33.2322L25.2291 27.1622C25.9214 26.5681 26.5681 25.9215 27.1621 25.2292L33.2323 31.2994C33.4906 31.5574 33.6328 31.9004 33.6328 32.2656C33.6328 32.6308 33.4906 32.9739 33.2322 33.2322Z"
                    fill="currentColor" />
                <path
                    d="M13.6719 2.73438C7.64087 2.73438 2.73438 7.64087 2.73438 13.6719C2.73438 19.7029 7.64087 24.6094 13.6719 24.6094C19.7029 24.6094 24.6094 19.7029 24.6094 13.6719C24.6094 7.64087 19.7029 2.73438 13.6719 2.73438ZM13.6719 23.2422C8.3948 23.2422 4.10156 18.9489 4.10156 13.6719C4.10156 8.3948 8.3948 4.10156 13.6719 4.10156C18.9489 4.10156 23.2422 8.3948 23.2422 13.6719C23.2422 18.9489 18.9489 23.2422 13.6719 23.2422Z"
                    fill="currentColor" />
                <path
                    d="M21.3326 10.7374C20.7439 9.20534 19.719 7.89544 18.3685 6.94941C16.9859 5.98076 15.3618 5.46875 13.6719 5.46875C13.2944 5.46875 12.9883 5.77486 12.9883 6.15234C12.9883 6.52982 13.2944 6.83594 13.6719 6.83594C16.4814 6.83594 19.047 8.60084 20.0564 11.2278C20.1608 11.4996 20.4198 11.6664 20.6946 11.6664C20.7761 11.6664 20.859 11.6517 20.9396 11.6208C21.292 11.4853 21.468 11.0899 21.3326 10.7374Z"
                    fill="currentColor" />
            </g>
        </symbol>
    </svg>